<svg width="53" height="42" viewBox="0 0 53 42" fill="none" xmlns="http://www.w3.org/2000/svg">
<path d="M19.1914 0.436882C16.4805 0.436882 14.2321 2.06282 13.5883 4.25982C13.5158 4.25982 13.4614 4.24395 13.3889 4.24395C10.1885 4.24395 7.58642 6.52027 7.58642 9.32005C7.58642 9.70076 7.64081 10.0735 7.74054 10.4304C5.09317 11.3822 3.23456 13.6506 3.23456 16.2997C3.23456 17.299 3.52469 18.227 3.98707 19.0677C1.81114 20.1623 0.333328 22.1927 0.333328 24.5483C0.333328 27.1895 2.18287 29.4579 4.81211 30.4096C4.73051 30.7745 4.68518 31.1473 4.68518 31.528C4.68518 34.6847 7.60455 37.2386 11.213 37.2386C11.5847 37.2386 11.9473 37.1989 12.3009 37.1434C13.1713 39.4039 15.5829 41.0457 18.466 41.0457C22.0745 41.0457 24.9938 38.4917 24.9938 35.335V5.51298C24.9938 2.71319 22.3918 0.436882 19.1914 0.436882ZM52.5556 24.5483C52.5556 22.1927 51.0777 20.1623 48.9018 19.0677C49.3733 18.227 49.6543 17.299 49.6543 16.2997C49.6543 13.6506 47.7957 11.3822 45.1483 10.4304C45.239 10.0735 45.3025 9.70076 45.3025 9.32005C45.3025 6.52027 42.7004 4.24395 39.5 4.24395C39.4275 4.24395 39.364 4.25982 39.3005 4.25982C38.6568 2.06282 36.4084 0.436882 33.6975 0.436882C30.4971 0.436882 27.8951 2.70526 27.8951 5.51298V35.335C27.8951 38.4917 30.8144 41.0457 34.4228 41.0457C37.3059 41.0457 39.7176 39.4039 40.588 37.1434C40.9415 37.1989 41.3042 37.2386 41.6759 37.2386C45.2843 37.2386 48.2037 34.6847 48.2037 31.528C48.2037 31.1473 48.1584 30.7745 48.0768 30.4096C50.706 29.4579 52.5556 27.1895 52.5556 24.5483Z" fill="#40C9FF"/>
</svg>
